<?xml version="1.0" encoding="UTF-8"?>
<svg width="72mm" height="22mm" viewBox="0 0 72 22" xmlns="http://www.w3.org/2000/svg" xmlns:inkscape="http://www.inkscape.org/namespaces/inkscape" xmlns:sodipodi="http://sodipodi.sourceforge.net/DTD/sodipodi-0.0.dtd">
  <defs><style>@import url('https://fonts.googleapis.com/css2?family=Plus+Jakarta+Sans:wght@600;700;800&display=swap');</style></defs>
<svg x="0.0000" y="0.2479" width="21.5456" height="21.5042" viewBox="0 0 21.545605 21.504232" xmlns:inkscape="http://www.inkscape.org/namespaces/inkscape" xmlns:sodipodi="http://sodipodi.sourceforge.net/DTD/sodipodi-0.0.dtd" xmlns="http://www.w3.org/2000/svg"><g
     inkscape:label="Layer 1"
     inkscape:groupmode="layer"
     id="layer1"
     transform="translate(-37.989749,-21.631805)"><path
       style="fill:#0f4c75;fill-opacity:1;stroke:#0f4c75;stroke-width:0.4;stroke-linecap:round;stroke-linejoin:miter;stroke-dasharray:none;stroke-opacity:1"
       d="m 53.601696,26.508477 c 0.683375,0.437973 1.145085,1.084237 1.53148,1.670701 l -0.863198,0.417676 -0.974577,-0.473366 z"
       id="path18"
       inkscape:label="hat_complement"
       sodipodi:nodetypes="ccccc" /><g
       id="g9"
       inkscape:label="head"
       inkscape:path-effect="#path-effect9"><path
         style="fill:#f04e4c;fill-opacity:1;stroke:#7b1a29;stroke-width:0.5;stroke-linecap:round;stroke-linejoin:round;stroke-dasharray:none;stroke-opacity:1"
         d="m 40.20653,36.979915 c -0.794117,-0.136523 -1.427985,-1.024876 -1.724236,-1.80152 -0.411664,-1.079211 -0.248362,-3.264169 0.120065,-3.463098 0.307846,-0.166219 1.685303,1.190143 1.685303,1.190143 m 17.030912,4.074475 c 0.794117,-0.136523 1.427985,-1.024876 1.724236,-1.80152 0.411664,-1.079211 0.248362,-3.264169 -0.120065,-3.463098 -0.307846,-0.166219 -1.685303,1.190143 -1.685303,1.190143"
         id="path6"
         sodipodi:nodetypes="casc"
         inkscape:label="ear"
         inkscape:original-d="m 40.20653,36.979915 c -0.794117,-0.136523 -1.427985,-1.024876 -1.724236,-1.80152 -0.411664,-1.079211 -0.248362,-3.264169 0.120065,-3.463098 0.307846,-0.166219 1.685303,1.190143 1.685303,1.190143" /><path
         style="fill:#f04e4c;fill-opacity:1;stroke:#7b1a29;stroke-width:0.5;stroke-dasharray:none;stroke-opacity:1"
         d="m 48.762549,42.886038 c -1.753721,0 -3.981004,-0.469038 -5.654952,-1.463554 -1.016869,-0.604136 -1.926951,-1.518276 -2.423615,-2.591742 -0.612658,-1.324169 -0.559447,-2.89041 -0.501375,-4.348286 0.05131,-1.288165 0.118183,-2.66938 0.747207,-3.794695 0.669362,-1.19748 1.780208,-2.211924 3.023082,-2.792671 1.46454,-0.684324 3.534583,-0.621129 4.809654,-0.621129 m 5e-6,15.612077 c 1.753721,0 3.981004,-0.469038 5.654952,-1.463554 1.016869,-0.604136 1.926951,-1.518276 2.423615,-2.591742 0.612658,-1.324169 0.559447,-2.89041 0.501375,-4.348286 -0.05131,-1.288165 -0.118183,-2.66938 -0.747207,-3.794695 -0.669362,-1.19748 -1.780208,-2.211924 -3.023082,-2.792671 -1.46454,-0.684324 -3.534583,-0.621129 -4.809654,-0.621129"
         id="path1"
         sodipodi:nodetypes="caaaaac"
         inkscape:original-d="m 48.762549,42.886038 c -1.753721,0 -3.981004,-0.469038 -5.654952,-1.463554 -1.016869,-0.604136 -1.926951,-1.518276 -2.423615,-2.591742 -0.612658,-1.324169 -0.559447,-2.89041 -0.501375,-4.348286 0.05131,-1.288165 0.118183,-2.66938 0.747207,-3.794695 0.669362,-1.19748 1.780208,-2.211924 3.023082,-2.792671 1.46454,-0.684324 3.534583,-0.621129 4.809654,-0.621129"
         inkscape:label="head" /><path
         style="fill:none;fill-opacity:1;stroke:#7b1a29;stroke-width:0.6;stroke-linecap:round;stroke-dasharray:none;stroke-opacity:1"
         d="m 43.768449,35.044585 c 0.616539,-1.158548 1.726047,-0.89328 2.187179,-1.5e-5 m 7.801027,1.5e-5 c -0.616539,-1.158548 -1.726047,-0.89328 -2.187179,-1.5e-5"
         id="path2"
         sodipodi:nodetypes="cc"
         inkscape:label="eye"
         inkscape:original-d="m 43.768449,35.044585 c 0.616539,-1.158548 1.726047,-0.89328 2.187179,-1.5e-5" /><path
         style="fill:none;fill-opacity:1;stroke:#7b1a29;stroke-width:1.4;stroke-linecap:round;stroke-dasharray:none;stroke-opacity:1"
         d="m 43.072527,32.484589 c 1.357536,-0.138311 2.494882,0.04719 3.454751,0.770485 m 7.925299,-0.770485 c -1.357536,-0.138311 -2.494882,0.04719 -3.454751,0.770485"
         id="path3"
         sodipodi:nodetypes="cc"
         inkscape:label="eyebrow"
         inkscape:original-d="m 43.072527,32.484589 c 1.357536,-0.138311 2.494882,0.04719 3.454751,0.770485" /><path
         style="fill:#ffffff;fill-opacity:0.995086;stroke:#7b1a29;stroke-width:0.4;stroke-linecap:round;stroke-linejoin:round;stroke-dasharray:none;stroke-opacity:1"
         d="m 44.810955,38.128506 c 0,0 1.079499,-1.02061 1.294173,-0.914706 0.251847,0.124244 0.285299,1.714954 0.285299,1.714954 m 6.323722,-0.800248 c 0,0 -1.079499,-1.02061 -1.294173,-0.914706 -0.251847,0.124244 -0.285299,1.714954 -0.285299,1.714954"
         id="path5"
         sodipodi:nodetypes="csc"
         inkscape:label="tooth"
         inkscape:original-d="m 44.810955,38.128506 c 0,0 1.079499,-1.02061 1.294173,-0.914706 0.251847,0.124244 0.285299,1.714954 0.285299,1.714954" /><path
         style="fill:none;fill-opacity:1;stroke:#7b1a29;stroke-width:0.5;stroke-linecap:round;stroke-dasharray:none;stroke-opacity:1"
         d="m 48.733305,39.294673 c -1.400424,0 -3.28199,-0.392955 -4.517478,-1.690095 m 4.575972,1.690095 c 1.400424,0 3.28199,-0.392955 4.517478,-1.690095"
         id="path4"
         sodipodi:nodetypes="cc"
         inkscape:label="mouth"
         inkscape:original-d="m 48.733305,39.294673 c -1.400424,0 -3.28199,-0.392955 -4.517478,-1.690095" /><path
         style="fill:#fb923c;fill-opacity:1;stroke:#7b1a29;stroke-width:0.499999;stroke-linecap:round;stroke-linejoin:round;stroke-dasharray:none;stroke-opacity:1"
         d="m 40.763054,31.020087 c 0.752134,0.326768 1.543905,0.0915 2.075564,-0.376276 0.771951,-0.679193 0.86132,-1.755079 0.267823,-2.273263 -0.407711,-0.355974 -0.953062,-0.530004 -1.266719,-0.955971 -0.949694,-1.289746 -0.5954,-2.282719 -1.072916,-2.356428 -0.477516,-0.07371 -1.101426,1.369852 -1.275882,2.199207 -0.184325,0.876271 -0.06711,1.852027 0.297686,2.669798 0.198841,0.445746 0.695119,0.971579 0.974444,1.092933 z m 15.998996,0 c -0.752134,0.326768 -1.543905,0.0915 -2.075564,-0.376276 -0.771951,-0.679193 -0.86132,-1.755079 -0.267823,-2.273263 0.407711,-0.355974 0.953062,-0.530004 1.266719,-0.955971 0.949694,-1.289746 0.5954,-2.282719 1.072916,-2.356428 0.477516,-0.07371 1.101426,1.369852 1.275882,2.199207 0.184325,0.876271 0.06711,1.852027 -0.297686,2.669798 -0.198841,0.445746 -0.695119,0.971579 -0.974444,1.092933 z"
         id="path7"
         inkscape:label="chub"
         sodipodi:nodetypes="sssszaas"
         inkscape:original-d="m 40.763054,31.020087 c 0.752134,0.326768 1.543905,0.0915 2.075564,-0.376276 0.771951,-0.679193 0.86132,-1.755079 0.267823,-2.273263 -0.407711,-0.355974 -0.953062,-0.530004 -1.266719,-0.955971 -0.949694,-1.289746 -0.5954,-2.282719 -1.072916,-2.356428 -0.477516,-0.07371 -1.101426,1.369852 -1.275882,2.199207 -0.184325,0.876271 -0.06711,1.852027 0.297686,2.669798 0.198841,0.445746 0.695119,0.971579 0.974444,1.092933 z" /><path
         style="fill:#fcc34f;fill-opacity:0.044226;stroke:#7b1a29;stroke-width:0.499999;stroke-linecap:round;stroke-linejoin:round;stroke-dasharray:none;stroke-opacity:1"
         d="m 48.762552,37.101346 c -0.521781,0 -1.013082,-0.211824 -1.13034,-0.806067 m 1.13034,0.806067 c 0.521781,0 1.013082,-0.211824 1.13034,-0.806067"
         id="path8"
         sodipodi:nodetypes="cc"
         inkscape:label="nose"
         inkscape:original-d="m 48.762552,37.101346 c -0.521781,0 -1.013082,-0.211824 -1.13034,-0.806067" /><path
         style="fill:#7b1a29;fill-opacity:1;stroke:#7b1a29;stroke-width:0.499999;stroke-linecap:round;stroke-linejoin:round;stroke-dasharray:none;stroke-opacity:1"
         d="m 48.762552,30.684884 c -1.157114,0 -1.783184,-0.895593 -2.194102,-1.712969 -0.783996,0.713153 -1.929554,0.970804 -2.673982,-1.049158 1.20989,-0.739483 4.601572,-0.648796 4.868086,-0.648796 m -2e-6,3.410923 c 1.157114,0 1.783184,-0.895593 2.194102,-1.712969 0.783996,0.713153 1.929554,0.970804 2.673982,-1.049158 -1.20989,-0.739483 -4.601572,-0.648796 -4.868086,-0.648796"
         id="path9"
         sodipodi:nodetypes="cccc"
         inkscape:label="hair"
         inkscape:original-d="m 48.762552,30.684884 c -1.157114,0 -1.783184,-0.895593 -2.194102,-1.712969 -0.783996,0.713153 -1.929554,0.970804 -2.673982,-1.049158 1.20989,-0.739483 4.601572,-0.648796 4.868086,-0.648796" /><path
         style="fill:#f57c70;fill-opacity:1;stroke:#f57c70;stroke-width:0.459124;stroke-linecap:round;stroke-linejoin:round;stroke-dasharray:none;stroke-opacity:1"
         id="path10"
         inkscape:label="blush"
         d="m 43.770769,36.433704 c 0,0.257437 -0.453899,0.466131 -1.013811,0.466131 -0.559912,0 -1.013811,-0.208694 -1.013811,-0.466131 0,-0.257436 0.453899,-0.46613 1.013811,-0.46613 0.559912,0 1.013811,0.208694 1.013811,0.46613 z m 9.983566,0 c 0,0.257437 0.453899,0.466131 1.013811,0.466131 0.559912,0 1.013811,-0.208694 1.013811,-0.466131 0,-0.257436 -0.453899,-0.46613 -1.013811,-0.46613 -0.559912,0 -1.013811,0.208694 -1.013811,0.46613 z"
         sodipodi:type="arc"
         sodipodi:cx="42.756958"
         sodipodi:cy="36.433704"
         sodipodi:rx="1.0138112"
         sodipodi:ry="0.46613023" /></g><g
       id="g12"
       inkscape:label="hat"><path
         style="fill:#fb923c;fill-opacity:1;stroke:#0f4c75;stroke-width:0.47916;stroke-linecap:round;stroke-linejoin:miter;stroke-dasharray:none;stroke-opacity:1"
         id="path13"
         sodipodi:type="arc"
         sodipodi:cx="49.236378"
         sodipodi:cy="22.657316"
         sodipodi:rx="0.80831903"
         sodipodi:ry="0.78573704"
         sodipodi:start="3.0667687"
         sodipodi:end="0.14949666"
         sodipodi:open="true"
         sodipodi:arc-type="arc"
         d="m 48.43032,22.716053 a 0.80831903,0.78573704 0 0 1 0.401863,-0.739185 0.80831903,0.78573704 0 0 1 0.859486,0.03121 0.80831903,0.78573704 0 0 1 0.344012,0.766268"
         inkscape:label="top_button" /><path
         style="fill:#38bdf8;fill-opacity:1;stroke:none;stroke-width:0.5;stroke-linecap:round;stroke-linejoin:miter;stroke-dasharray:none;stroke-opacity:1"
         d="m 43.915899,27.900341 c 0,0 0.01671,-2.165798 0.48385,-3.102399 0.306353,-0.614224 0.825682,-1.160156 1.434341,-1.477421 1.047085,-0.545796 2.316417,-0.602676 3.496681,-0.567228 0.829904,0.02492 1.704271,0.142939 2.430328,0.545684 0.702799,0.389844 1.359533,0.985134 1.693534,1.716126 0.405859,0.88826 0.229476,2.920767 0.229476,2.920767 0,0 -1.215327,-0.686421 -4.898154,-0.703571 -3.619815,-0.01686 -4.870056,0.668042 -4.870056,0.668042 z"
         id="path11"
         sodipodi:nodetypes="caaaaacsc"
         inkscape:label="body" /><path
         style="fill:#fb923c;fill-opacity:1;stroke:#0f4c75;stroke-width:0.3;stroke-linecap:round;stroke-linejoin:miter;stroke-dasharray:none;stroke-opacity:1"
         d="m 49.785878,22.740118 c 1.975299,0.970591 2.397959,2.672428 2.077547,4.682011 0.617065,0.09623 1.22911,0.21757 1.806565,0.511859 0.07056,-0.773892 0.215391,-2.561425 -0.647353,-3.552908 -1.415802,-1.627067 -2.91375,-1.604962 -3.236759,-1.640962 z"
         id="path12"
         sodipodi:nodetypes="cccsc"
         inkscape:label="side" /><path
         style="fill:#fb923c;fill-opacity:1;stroke:#0f4c75;stroke-width:0.4;stroke-linecap:round;stroke-linejoin:miter;stroke-dasharray:none;stroke-opacity:1"
         d="m 45.959521,27.361115 c -0.237544,-3.611375 3.82256,-3.509106 3.44786,-0.135906"
         id="path14"
         sodipodi:nodetypes="cc"
         inkscape:label="hole" /><path
         style="fill:#7b1a29;fill-opacity:1;stroke:none;stroke-width:0.4;stroke-linecap:round;stroke-linejoin:miter;stroke-dasharray:none;stroke-opacity:1"
         d="m 49.321541,26.202293 c -0.368525,-1.465344 -2.653731,-2.073326 -3.505083,-1.487872 -0.459255,0.315818 0.400581,1.566557 0.400581,1.566557"
         id="path16"
         sodipodi:nodetypes="csc"
         inkscape:label="hair" /><path
         style="fill:none;fill-opacity:1;stroke:#0f4c75;stroke-width:0.4;stroke-linecap:round;stroke-linejoin:miter;stroke-dasharray:none;stroke-opacity:1"
         d="m 46.052515,26.352511 c 1.087452,-0.205736 2.16019,-0.203957 3.304793,-0.08584"
         id="path15"
         sodipodi:nodetypes="cc"
         inkscape:label="hole_limit" /><path
         style="fill:none;fill-opacity:1;stroke:#0f4c75;stroke-width:0.5;stroke-linecap:round;stroke-linejoin:miter;stroke-dasharray:none;stroke-opacity:1"
         d="m 43.915899,27.900341 c 0,0 0.01671,-2.165798 0.48385,-3.102399 0.306353,-0.614224 0.825682,-1.160156 1.434341,-1.477421 1.047085,-0.545796 2.316417,-0.602676 3.496681,-0.567228 0.829904,0.02492 1.704271,0.142939 2.430328,0.545684 0.702799,0.389844 1.359533,0.985134 1.693534,1.716126 0.405859,0.88826 0.229476,2.920767 0.229476,2.920767 0,0 -1.215327,-0.686421 -4.898154,-0.703571 -3.619815,-0.01686 -4.870056,0.668042 -4.870056,0.668042 z"
         id="path17"
         sodipodi:nodetypes="caaaaacsc"
         inkscape:label="body_border" /></g></g></svg>
  <text x="25.545605" y="12.5" font-family="Plus Jakarta Sans, sans-serif" font-weight="800" font-size="8.5" fill="#0f4c75" letter-spacing="0.8" text-anchor="start">CHAMUCO</text>
  <text x="25.545605" y="20.0" font-family="Plus Jakarta Sans, sans-serif" font-weight="600" font-size="5.5" fill="#38bdf8" letter-spacing="2.5" text-anchor="start">TRAVEL</text>
</svg>
